# xmcd
#
# Track frame offsets:
#	150
#	13894
#	27851
#	41338
#	55233
#	68275
#	80878
#	95139
#	109418
#	122529
#	135596
#	149788
#	163212
#	175729
#	187014
#	199313
#	213053
#	225813
#	239163
#	251878
#	265902
#	277705
#	290874
#	304497
#
# Disc length: 4235 seconds
#
# Revision: 0
# Processed by: cddbd v1.5.2PL0 Copyright (c) Steve Scherf et al.
# Submitted via: EasyCDDAExtractor 16.0.6.1
#
DISCID=6f108918
DTITLE=Χρηστάκης - Παίζουν τα μπαγλαμαδάκια-Αντ1, Χρηστάκης
DYEAR=1995
DGENRE=Ρεμπέτικη
TTITLE0=Παίζουν τα μπαγλαμαδάκια [Γ. Ροβερτάκη]
TTITLE1=Το πουλί [Ζ. Ιακωβίδη-Μ. Γαβριηλίδη]
TTITLE2=Στις ταβέρνες τριγυρνάς [Ι. Γαβαλά-Ε. Ατραΐδη-Ι. Βασιλόπουλου]
TTITLE3=Ο παραμυθάς [Γ. Μουζάκη-Β. Μιχαλάτου]
TTITLE4=Να χαρείς τα μάτια σου καλέ [Ι. Γαβαλά-Σ. Ζαφειρίου]
TTITLE5=Το κορόϊδο της Μαρίας [Τ. Σούκα-Ε. Γιγουρτάκη]
TTITLE6=Έμαθα πως είσαι μάγκας [Δ. Σκαρβέλη]
TTITLE7=Η γάτα (Έδιωξα και εγώ μιά γάτα) [Σ. Περπινιάδη-Ν. Μάτεση]
TTITLE8=Σού 'χα χαρίσει την καρδιά [Ι. Παπαϊωάννου]
TTITLE9=Βάλε με φως μου βάλε με [Γ. Ροβερτάκη]
TTITLE10=Να σε χαρεί η μάνα σου [Γ. Κονιτόπουλου]
TTITLE11=Πήρα το δρόμο το στερνό [Ι. Παπαϊωάννου]
TTITLE12=Κοίτα ρε τι έπαθα [Γ. Μουζάκη-Α. Σακελλάριου]
TTITLE13=Διαζύγιο θα πάρω [Π. Πέτσα]
TTITLE14=Πάρε τ' απολυτήριο [Γ. Κονιτόπουλου-Χ. Ρουχίτσα]
TTITLE15=Κοιμόμουν κι ονειρεύτηκα [Ε. Δέδε]
TTITLE16=Σε γελάσανε [Γ. Ροβερτάκη]
TTITLE17=Βοτσαλάκια, βοτσαλάκια [Σ. Μακριδάκη-Χ. Βασιλειάδη]
TTITLE18=Το ταβερνάκι [Α. Ρεπάνη-Π. Καλημέρη]
TTITLE19=Αν είχα κόσμε τάλληρα [Π. Πέτσα]
TTITLE20=Σταμάτησε τη γκρίνια [Μ. Γενίτσαρη]
TTITLE21=Το κοκκοράκι [Α. Μαρδά]
TTITLE22=Δυό καρπούζια [Μ. Μπακάλη-Δ. Γκούτη]
TTITLE23=Μπουζουκομανία [Μ. Μπακάλη]
EXTD=
EXTT0=
EXTT1=
EXTT2=
EXTT3=
EXTT4=
EXTT5=
EXTT6=
EXTT7=
EXTT8=
EXTT9=
EXTT10=
EXTT11=
EXTT12=
EXTT13=
EXTT14=
EXTT15=
EXTT16=
EXTT17=
EXTT18=
EXTT19=
EXTT20=
EXTT21=
EXTT22=
EXTT23=
PLAYORDER=
